<?xml version="1.0" standalone="no"?><!DOCTYPE svg PUBLIC "-//W3C//DTD SVG 1.1//EN" "http://www.w3.org/Graphics/SVG/1.1/DTD/svg11.dtd"><svg class="icon" width="200px" height="200.00px" viewBox="0 0 1024 1024" version="1.1" xmlns="http://www.w3.org/2000/svg"><path fill="#8a8a8a" d="M334.476 778.285c-49.041 0-88.318 39.72-88.318 88.761s39.278 88.762 88.318 88.762 88.761-39.72 88.761-88.762c0.001-49.04-39.72-88.761-88.761-88.761zM68.19 68.19v88.762h88.762l159.55 336.629-59.915 108.733c-6.879 12.87-10.874 27.295-10.874 42.827 0 49.041 39.72 88.762 88.762 88.762h532.57v-88.762H353.338c-6.213 0-11.095-4.882-11.095-11.095 0-1.998 0.444-3.772 1.331-5.326l39.72-72.34h330.638c33.286 0 62.355-18.419 77.667-45.712l158.662-288.032c3.55-6.214 5.547-13.537 5.547-21.304 0-24.63-19.972-44.38-44.38-44.38H255.256L213.094 68.19H68.191z m710.094 710.094c-49.041 0-88.318 39.72-88.318 88.761s39.278 88.762 88.318 88.762 88.761-39.72 88.761-88.762c0-49.04-39.72-88.761-88.761-88.761z" /></svg>