<?xml version="1.0" standalone="no"?><!DOCTYPE svg PUBLIC "-//W3C//DTD SVG 1.1//EN" "http://www.w3.org/Graphics/SVG/1.1/DTD/svg11.dtd"><svg class="icon" width="200px" height="200.00px" viewBox="0 0 1024 1024" version="1.1" xmlns="http://www.w3.org/2000/svg"><path fill="#fff" d="M197.4 119.5v786c0 33.1 26.9 60 60 60h514c33.1 0 60-26.9 60-60v-786c0-33.1-26.9-60-60-60h-514c-33.1 0-60 26.9-60 60z m240-15h154c5.5 0 10 4.5 10 10v4c0 5.5-4.5 10-10 10h-154c-5.5 0-10-4.5-10-10v-4c0-5.5 4.5-10 10-10z m79.4 831.9c-26.7 1.4-48.6-20.6-47.3-47.3 1.2-22.9 19.7-41.4 42.6-42.6 26.7-1.4 48.6 20.6 47.3 47.3-1.2 22.9-19.8 41.5-42.6 42.6z m201.1-121.9h-407c-11 0-20-9-20-20v-604c0-11 9-20 20-20h407c11 0 20 9 20 20v604c0 11-8.9 20-20 20z" /></svg>