<?xml version="1.0" standalone="no"?><!DOCTYPE svg PUBLIC "-//W3C//DTD SVG 1.1//EN" "http://www.w3.org/Graphics/SVG/1.1/DTD/svg11.dtd"><svg class="icon" width="200px" height="200.00px" viewBox="0 0 1024 1024" version="1.1" xmlns="http://www.w3.org/2000/svg"><path fill="#8a8a8a" d="M892.343 738.743c7.314 0 21.943 0 29.257 7.314-29.257-21.943-51.2-58.514-51.2-95.086V424.23c0-168.229-117.029-307.2-285.257-343.772v-7.314C585.143 36.57 548.57 0 512 0s-80.457 36.571-80.457 73.143v7.314C270.629 117.03 153.6 256 153.6 424.23V650.97c0 36.572-21.943 73.143-51.2 95.086 7.314-7.314 14.629-7.314 29.257-7.314-29.257 0-51.2 21.943-51.2 51.2s21.943 51.2 51.2 51.2h768c29.257 0 51.2-21.943 51.2-51.2-7.314-21.943-29.257-43.886-58.514-51.2zM512 1024c73.143 0 131.657-58.514 131.657-131.657H380.343C380.343 965.486 438.857 1024 512 1024z"  /></svg>