<?xml version="1.0" standalone="no"?><!DOCTYPE svg PUBLIC "-//W3C//DTD SVG 1.1//EN" "http://www.w3.org/Graphics/SVG/1.1/DTD/svg11.dtd"><svg class="icon" width="200px" height="200.00px" viewBox="0 0 1024 1024" version="1.1" xmlns="http://www.w3.org/2000/svg"><path fill="#8a8a8a" d="M537 137c165.23 0 302.183 121.067 326.991 279.332C922.626 464.753 960 538.012 960 620c0 145.803-118.197 264-264 264H348c-156.942-0.542-284-127.933-284-285 0-115.73 68.98-215.348 168.067-259.984C282.35 220.296 399.947 137 537 137z m-25 255c-17.673 0-32 14.327-32 32v175.758l-45.373-45.383-0.377-0.372c-12.524-12.127-32.506-12.003-44.877 0.372-12.497 12.5-12.497 32.765 0 45.265l84.52 84.54 0.635 0.624c21.06 20.395 54.635 20.27 75.543-0.434l85.444-84.618 0.373-0.375c12.186-12.467 12.162-32.453-0.148-44.89-12.435-12.561-32.696-12.662-45.255-0.225L544 600.296V424c0-17.673-14.327-32-32-32z"  /></svg>